<svg xmlns="http://www.w3.org/2000/svg" xmlns:xlink="http://www.w3.org/1999/xlink" width="376.4" height="280.258" viewBox="0 0 376.4 280.258">
  <defs>
    <linearGradient id="linear-gradient" x1="0.5" x2="0.5" y2="1" gradientUnits="objectBoundingBox">
      <stop offset="0" stop-color="#41a4a6"/>
      <stop offset="1" stop-color="#60af77"/>
    </linearGradient>
  </defs>
  <g id="Group_160523" data-name="Group 160523" transform="translate(0)">
    <path id="Path_14648" data-name="Path 14648" d="M252.017,361.293c19.94,2.432,37.048,14.728,51.127,16.413,15.647,1.872,39.311-8.409,63.443,3.691,6.211,3.115,11.311,6.857,9.411,11.509-3.312,8.107-10.281,11.283-25.547,13.485l-1.628.225c-11.8,1.57-24.485,1.949-56.64,2.162l-10.987.083c-39.2.341-61.863,2.177-91.215,4.521l-2.992.243c-54.052,4.448-97.2,3.735-129.436-1.2l-.974-.151C30.533,408.2,14.873,401.452,7.229,393.8c-4.5-4.508-7.092-8.711-7.226-13.2s6.5-9.431,10.282-11.3c10.526-5.194,13.961-7.077,34.2-9.737C53.2,358.416,66.25,358.507,81.339,358,135.47,356.17,219.094,357.279,252.017,361.293Z" transform="translate(0 -144.809)" fill="#fff"/>
    <path id="Path_14649" data-name="Path 14649" d="M275.872,232.288c-30.686,69.454-141.732,67.217-219,19.812-14.757-9.054-65.482-51.725-15.556-76.642s33.934-63.191,74.226-108.84c46.595-52.791,133.367-79.867,194.393-8.839C465.042,238.308,286.2,208.9,275.872,232.288Z" transform="translate(-8.039 -6.007)" fill-rule="evenodd" fill="url(#linear-gradient)"/>
    <path id="Path_14650" data-name="Path 14650" d="M97.574,67.284c-2.766-4.445-5.539-6.151-8.266-4.675-2.309,1.249-2.692,4.585-1.464,9.922l-.736.4A2.081,2.081,0,0,0,86.424,76l.394.528c5.759,7.639,10.322,10.768,13.882,9.048,2.993-1.446,3.5-7.606,1.958-18.753a1.486,1.486,0,0,0-1.578-1.279l-.1.01a1.487,1.487,0,0,0-.5.164Zm-8.166,4.05,6.421-3.474-.015-.024c-2.208-3.424-4.078-4.514-5.657-3.66l-.072.042c-1.165.711-1.488,2.946-.746,6.766ZM100.95,67.49l-13,7.008a.3.3,0,0,0-.121.4.3.3,0,0,0,.023.036l.383.512c5.264,6.982,9.223,9.709,11.685,8.52,1.871-.9,2.362-6.4,1.06-16.218ZM98.295,78.726a1.784,1.784,0,1,0-1.29.552,1.8,1.8,0,0,0,.229-.015l1.014,1.861.037.059a.595.595,0,0,0,1.008-.628Z" transform="translate(-34.876 -25.175)" fill="#5eae7a" fill-rule="evenodd"/>
    <path id="Path_14651" data-name="Path 14651" d="M252.017,361.293c19.94,2.432,37.048,14.728,51.127,16.413,15.647,1.872,39.311-8.409,63.443,3.691,6.211,3.115,11.311,6.857,9.411,11.509-3.312,8.107-10.281,11.283-25.547,13.485l-1.628.225c-11.8,1.57-24.485,1.949-56.64,2.162l-10.987.083c-39.2.341-61.863,2.177-91.215,4.521l-2.992.243c-54.052,4.448-97.2,3.735-129.436-1.2l-.974-.151C30.533,408.2,14.873,401.452,7.229,393.8c-4.5-4.508-7.092-8.711-7.226-13.2s6.5-9.431,10.282-11.3c10.526-5.194,13.961-7.077,34.2-9.737C53.2,358.416,66.25,358.507,81.339,358,135.47,356.17,219.094,357.279,252.017,361.293Zm-207.981,2.03-1.326.177c-18.859,2.557-30.914,7.21-36.625,11.849l-.356.3c-4.385,3.779-4.8,8.027,1.508,14.307,6.892,6.867,24.47,14.613,49.816,18.562,31.731,4.944,74.391,6.38,127.966,2.08l5.616-.452c30.93-2.432,54.66-3.726,98.58-4.035l12.124-.09c26.148-.237,37.261-.7,47.99-2.2l1.02-.147c47.376-9.267,13.192-25.894-6.421-25.97-16.8-.065-36.971,4.66-42.589,2.892-17.708-5.574-26.8-14.108-49.321-16.838l-6.549-.785-5.59-.264C148.253,358.454,82.955,358.237,44.036,363.323Z" transform="translate(0 -144.809)" fill="#00160a" fill-rule="evenodd"/>
    <path id="Path_14652" data-name="Path 14652" d="M162.294,5.373q-.488-.016-.976,0A14.674,14.674,0,0,0,147.151,20.3l.007.243.1,3q.422,13.5.464,26.892l.049,27.472c.011,9.888,0,18.811-.024,27.55l-.04,9.268c-.156,29.506-.576,50.213-1.356,59.226l-.15,1.686q-1.413,16.524-.578,47.43.01.358.036.713a15.311,15.311,0,0,0,16.149,14.157l.253-.017,2.769-.2q38.817-2.77,77.634-2.77,37.994,0,76.572,2.653a17.862,17.862,0,0,0,19.074-18.537l-.014-.3-.2-3.507q-2.589-47.395-2.681-94.789l0-3.511q0-34.544,3.234-94.765.037-.675.015-1.351A15.949,15.949,0,0,0,322.289,5.4l-.263.006-13.149.4q-44.809,1.322-65.269,1.381l-2.339,0-2.406-.006q-20.893-.09-64.7-1.433Z" transform="translate(-58.918 -2.175)" fill="#fff"/>
    <path id="Path_14653" data-name="Path 14653" d="M437.99,4a12.126,12.126,0,0,1-4.164,1.217,35.3,35.3,0,0,0,10.46-.275l-.549-.068Q441.056,4.535,437.99,4" transform="translate(-175.901 -1.622)" fill="#e7eaee" fill-rule="evenodd"/>
    <path id="Path_14654" data-name="Path 14654" d="M159.26,361.619l.124,0a1.246,1.246,0,0,1,1.236,1.313,1.95,1.95,0,0,1-1.771,1.551c-.7.048-1.188-.492-1.111-1.329A1.631,1.631,0,0,1,159.26,361.619Z" transform="translate(-63.954 -146.624)" fill="#e7eaee" fill-rule="evenodd"/>
    <path id="Path_14655" data-name="Path 14655" d="M182.866,380.933l.123,0a1.247,1.247,0,0,1,1.237,1.312,1.951,1.951,0,0,1-1.771,1.551c-.7.048-1.188-.491-1.111-1.329A1.631,1.631,0,0,1,182.866,380.933Z" transform="translate(-73.525 -154.455)" fill="#e7eaee" fill-rule="evenodd"/>
    <path id="Path_14656" data-name="Path 14656" d="M303.021,238.268c-30.447,6.719,26.721,5.532,49.023,4.06,12.137-.8,21.829,5.262,27.394,5.645a17.862,17.862,0,0,0,19.074-18.537l-.014-.3-.2-3.507q-2.589-47.395-2.681-94.789l0-3.511q0-34.544,3.234-94.765.037-.675.015-1.351C398.6,22.5,381.894,220.86,303.021,238.268Z" transform="translate(-119.322 -12.544)" fill="#e7eaee" fill-rule="evenodd"/>
    <path id="Path_14657" data-name="Path 14657" d="M460.067,366l.108,0a1.158,1.158,0,0,1,.944,1.328,1.733,1.733,0,0,1-1.419,1.536c-.472.037-.871-.471-.8-1.343C458.971,366.634,459.53,366.015,460.067,366Z" transform="translate(-186.064 -148.4)" fill="#fff"/>
    <path id="Path_14658" data-name="Path 14658" d="M458.353,369.572c-1.982.157-3.375-1.615-3.2-3.749a3.618,3.618,0,0,1,3.643-3.569,3.384,3.384,0,0,1,3.025,3.762A3.952,3.952,0,0,1,458.353,369.572Zm.3-5.09-.108,0c-.536.014-1.1.633-1.168,1.526-.07.872.329,1.38.8,1.343a1.733,1.733,0,0,0,1.419-1.536A1.158,1.158,0,0,0,458.652,364.482Z" transform="translate(-184.542 -146.878)" fill="#fff" fill-rule="evenodd"/>
    <path id="Path_14659" data-name="Path 14659" d="M323,27.022a12.759,12.759,0,0,1,12.759,12.759c0,.264-.008.527-.024.791l-.187,3.126q-.514,8.9-1.026,21.131l-.052,1.306q-1.249,32.9-.079,155.689a12.759,12.759,0,0,1-12.636,12.88q-.258,0-.515-.005l-139.979-4.319a12.759,12.759,0,0,1-12.321-11.692l-.118-1.459q-2.765-34.855-.329-89.012l.238-5.177q1.244-28.5.2-83.012a12.759,12.759,0,0,1,12.291-13l.342-.008Z" transform="translate(-67.853 -10.957)" fill="#fff"/>
    <path id="Path_14660" data-name="Path 14660" d="M270.853,231.9a37.791,37.791,0,0,0,18.042-3.527,29.18,29.18,0,0,0,14.96-17.132c3.784-10.679,2.394-22.226-3.046-32.389-4.841-9.046-12.454-15.93-19.47-17.632,0,0,19.47,27.389,16.681,42.362C293.755,226.473,270.853,231.9,270.853,231.9Z" transform="translate(-109.821 -65.368)" fill="#e7eaee" fill-rule="evenodd"/>
    <path id="Path_14661" data-name="Path 14661" d="M272.166,226q4.514,1.873,2.756,6.959l-.067.19c-7.621,20.926-16.608,21.117-8.918,0q1.4-3.837-.693-5.888,3.695-.75,6.922-1.261" transform="translate(-106.637 -91.635)" fill="#e7eaee" fill-rule="evenodd"/>
    <path id="Path_14662" data-name="Path 14662" d="M198.016,174.385c1.971-5.859,4.851-10.263,10.233-13.745l.684-.433c1.161-.729,2.592-1.554,3.756-.991,1.479.716,3.621,3.326,2.318,4.351-.884.7-4.521,1.434-7.263,3.836-3.237,2.836-5.567,7.4-5.567,8.524C202.178,179.577,196.852,177.844,198.016,174.385Z" transform="translate(-80.221 -64.481)" fill="#e7eaee" fill-rule="evenodd"/>
    <path id="Path_14663" data-name="Path 14663" d="M181.96,38.913c-6.769,18.587-6.723,22.275-7.129,19.071-1.314-10.361-2.305-17.169-.744-21.305,1.976-5.236,6.93-6.266,8.206-5.658C184.99,32.306,181.96,38.913,181.96,38.913Z" transform="translate(-70.262 -12.515)" fill="#e7eaee" fill-rule="evenodd"/>
    <path id="Path_14664" data-name="Path 14664" d="M367.332,204.993l-2.252-.069a61.378,61.378,0,0,0-6.214.074,13.782,13.782,0,0,0-2.814.452l-.109.036-.011.051a7.921,7.921,0,0,0-.123,1.2l-.005.187a32.562,32.562,0,0,0,.495,5.633c.29,1.8.686,3.67,1.1,5.246l.1.388c.16.588.315,1.1.45,1.5l.049.142.059.023c.83.295,2.479.329,5.66.1l2.161-.169c1.455-.107,2.516-.153,3.563-.14l10.153.212c1.42.027,2.7.048,3.961.064l2.281.026c5.7.332,11.956.083,12.734-1.335,2.375-4.324,3.5-13.23,2.375-13.289-2.015-.107-4.454-.234-5.612-.218l-2.675.049-2.426.019c-1.108.007-2.263.01-3.5.011l-13.914-.032c-.9-.007-1.791-.029-3.387-.081Z" transform="translate(-144.264 -83.073)" fill="#e7eaee" fill-rule="evenodd"/>
    <path id="Path_14665" data-name="Path 14665" d="M173.188.414l-12.9-.4q-.594-.019-1.188,0a17.862,17.862,0,0,0-17.238,18.466l.1,2.991c.115,3.694.291,7.382.467,11.064.3,6.252.6,12.487.6,18.7l.041,22.549c.04,31.446-.055,83.234-1.452,98.234l-.105,1.177a407.192,407.192,0,0,0-1.257,44.859l.075,2.925q.012.432.043.862a18.5,18.5,0,0,0,19.813,17.086l2.765-.2.458-.033c.092.154.185.309.278.461a11.173,11.173,0,0,1,.963,1.769,11.829,11.829,0,0,1,.13,4.014l-.143,2.054-.039.667c-.209,4.094.264,6.529,2.261,8.363,2.568,2.359,5.29,2.108,10.865,1.6l.25-.023,1.435-.139a30.282,30.282,0,0,1,4.795.058h0c.366.026.683.048.931.058l.469.023c3.2.128,3.707-.925,3.987-3.528.155-1.435-.046-2.563-.889-5.475l-.63-2.146-.21-.746c-.984-3.638-.894-5.454.388-6.332a21.106,21.106,0,0,1,3.11-1.045c1.542-.459,3.3-.98,4.4-1.44q22.3-.917,44.6-.917,23.43,0,47.084,1.012a.9.9,0,0,0-.012.76c.125.388.6.656,1.206,1,1.608.909,4.141,2.342,3.552,7.906l0,.229c.089,4.386,2.747,6.958,7.024,7.832a26.408,26.408,0,0,0,9.655-.207,4.2,4.2,0,0,0,3.423-3.072,11.866,11.866,0,0,0,.474-3.4s-.78-8.578,3.558-9.436l.388.027q.753.052,1.508.049.1.024.205.052a.788.788,0,0,0,.585-.069c.112,0,.224-.01.335-.016a21.053,21.053,0,0,0,19.829-22.208l-.195-3.5q-2.681-49.062-2.68-98.126,0-33.41,3.039-91.008l.191-3.586q.044-.81.018-1.621A19.138,19.138,0,0,0,319.821.039l-6.7.206Q263.353,1.754,241.5,1.817l-2.332,0Q218.762,1.8,173.188.414Zm138.778,237.88q-11.059-.714-22.069-1.21c3.514,1.706,4.768,4.891,4.837,9.3l0,.259c0,2.851,2.218,4.712,5.2,5.32.312.064.633.133.96.2a18.235,18.235,0,0,0,7.027.529l.4-.067c1.807-.666,1.807-7.157,1.807-7.157.02-.528.038-.872.069-1.291l.04-.471A10.11,10.11,0,0,1,311.966,238.294Zm-144.253,1.75a5.366,5.366,0,0,0-.74-1.6q9.387-.635,18.775-1.108c-.978,1.089-1.07,2.561-1.106,4.319a18.4,18.4,0,0,0,.919,5.4l.039.136.589,2.006c.722,2.477.938,3.514.878,4.382l-.013.147c-.087.806-1.121,1.715-2.87,1.613l-.313-.016c-.75-.114-8.135.016-8.135.016-3.41.345-5.052-.13-6.725-1.666-1.123-1.032-1.424-2.863-1.2-6.368l.138-1.968a15.206,15.206,0,0,0-.165-5.039ZM159.211,3.2q.489-.017.977,0l11.868.373Q215.871,4.914,236.757,5l2.406.006,2.338,0q20.468-.059,65.269-1.381l13.148-.4.264-.006a15.949,15.949,0,0,1,16.173,15.451q.021.675-.015,1.351-3.234,60.228-3.234,94.765l0,3.511q.093,47.395,2.682,94.789l.2,3.507.014.3a17.862,17.862,0,0,1-19.074,18.537q-38.578-2.653-76.572-2.653-38.818,0-77.635,2.77l-2.768.2-.253.017a15.311,15.311,0,0,1-16.149-14.157q-.027-.356-.036-.713-.837-30.888.578-47.43l.151-1.686c.78-9.014,1.2-29.721,1.356-59.226l.04-9.268c.029-8.739.035-17.662.024-27.55l-.048-27.472q-.042-13.393-.465-26.892l-.1-3-.007-.243A14.674,14.674,0,0,1,159.211,3.2Zm165.5,25.626a12.759,12.759,0,0,0-12.759-12.759H170.514l-.342.008a12.759,12.759,0,0,0-12.291,13q1.049,54.513-.2,83.012l-.238,5.177q-2.436,54.156.329,89.012l.119,1.459a12.759,12.759,0,0,0,12.321,11.692l139.979,4.319q.258.008.515.005a12.759,12.759,0,0,0,12.637-12.88q-1.171-122.784.079-155.689l.052-1.306q.511-12.232,1.026-21.131l.187-3.126Q324.715,29.22,324.715,28.825ZM170.636,19.255h141.32a9.569,9.569,0,0,1,9.569,9.569q0,.3-.018.593-.5,8.071-1,19.27l-.218,5.05q-1.264,30.229-.247,144.854l.113,12.3a9.569,9.569,0,0,1-9.477,9.66c-.128,0-.257,0-.386,0l-139.979-4.318-.211-.009a9.569,9.569,0,0,1-9.03-8.76q-2.947-35.306-.388-91.2l.16-3.448q1.208-26.891.345-77.148l-.121-6.656a9.569,9.569,0,0,1,9.383-9.752Zm-4.889-9.783a3.293,3.293,0,0,1-3.488,3.763,4.171,4.171,0,0,1-3.838-3.541l-.012-.136a3.477,3.477,0,0,1,3.2-3.63l.144-.013A3.842,3.842,0,0,1,165.747,9.473ZM162,8.141l-.123,0a1.247,1.247,0,0,0-1.237,1.312,1.951,1.951,0,0,0,1.771,1.551c.7.048,1.188-.491,1.111-1.329A1.631,1.631,0,0,0,162,8.141ZM150.713,26.386c-2.208.2-3.7-1.928-3.511-4.475.18-2.5,1.894-4.5,4.017-4.314l.137.015a3.97,3.97,0,0,1,3.186,4.321l-.01.15A4.6,4.6,0,0,1,150.713,26.386Zm.342-6.562-.109-.005c-.677.008-1.422.923-1.517,2.253s.476,2.144,1.087,2.09a2.419,2.419,0,0,0,1.791-2.262A1.791,1.791,0,0,0,151.055,19.824ZM315.993,9.473a3.293,3.293,0,0,0,3.487,3.763,4.171,4.171,0,0,0,3.838-3.541l.012-.136a3.477,3.477,0,0,0-3.2-3.63l-.144-.013A3.842,3.842,0,0,0,315.993,9.473Zm3.746-1.332.123,0A1.247,1.247,0,0,1,321.1,9.458a1.951,1.951,0,0,1-1.771,1.551c-.7.048-1.189-.491-1.111-1.329A1.631,1.631,0,0,1,319.739,8.141Zm8.143,14.6a3.293,3.293,0,0,1,1.515-4.9,3.842,3.842,0,0,1,5.077,1.68l.061.131a3.477,3.477,0,0,1-1.543,4.586l-.124.058A4.171,4.171,0,0,1,327.882,22.736Zm4.6-2.215-.058-.109a1.631,1.631,0,0,0-2.093-.549,1.073,1.073,0,0,0-.6,1.626,1.951,1.951,0,0,0,2.228.759A1.246,1.246,0,0,0,332.481,20.522ZM149.137,213.837a3.293,3.293,0,0,0,.253,5.124,4.171,4.171,0,0,0,5.216-.246l.1-.1a3.476,3.476,0,0,0-.119-4.837l-.1-.1A3.842,3.842,0,0,0,149.137,213.837Zm3.725,1.387.092.083a1.247,1.247,0,0,1,.1,1.8,1.952,1.952,0,0,1-2.354.049,1.074,1.074,0,0,1,0-1.732A1.632,1.632,0,0,1,152.862,215.224Zm10.562,15.22a3.293,3.293,0,0,1-.253-5.124,3.842,3.842,0,0,1,5.345-.158l.1.1a3.477,3.477,0,0,1,.118,4.838l-.1.1A4.17,4.17,0,0,1,163.424,230.444Zm3.564-3.655-.092-.083a1.631,1.631,0,0,0-2.155.2,1.073,1.073,0,0,0,0,1.732,1.95,1.95,0,0,0,2.353-.049A1.247,1.247,0,0,0,166.988,226.79Zm153.508-.728c-1.778,1.793-1.825,4.43.068,5.786a4.711,4.711,0,0,0,5.884-.532,3.973,3.973,0,0,0,.072-5.686A4.3,4.3,0,0,0,320.5,226.061Zm4.392,1.1.091.084a1.738,1.738,0,0,1-.1,2.479,2.485,2.485,0,0,1-3.017.307c-.68-.486-.661-1.513.217-2.4A2.154,2.154,0,0,1,324.888,227.161Zm5.735-4.466c-1.982.156-3.375-1.616-3.2-3.749a3.618,3.618,0,0,1,3.643-3.569,3.384,3.384,0,0,1,3.025,3.762A3.953,3.953,0,0,1,330.623,222.7Zm.3-5.09-.108,0c-.537.014-1.1.633-1.168,1.526-.07.872.329,1.38.8,1.343a1.733,1.733,0,0,0,1.419-1.536A1.158,1.158,0,0,0,330.922,217.6Z" transform="translate(-56.812 0)" fill="#00160a" fill-rule="evenodd"/>
    <path id="Path_14666" data-name="Path 14666" d="M178.145,378.191a3.294,3.294,0,0,0,.252,5.124,4.17,4.17,0,0,0,5.216-.246l.1-.1a3.478,3.478,0,0,0-.119-4.838l-.1-.1A3.842,3.842,0,0,0,178.145,378.191Zm3.725,1.387.092.083a1.247,1.247,0,0,1,.1,1.8,1.951,1.951,0,0,1-2.354.049,1.073,1.073,0,0,1,0-1.732A1.631,1.631,0,0,1,181.87,379.578Z" transform="translate(-71.785 -152.871)" fill="#00160a" fill-rule="evenodd"/>
    <path id="Path_14667" data-name="Path 14667" d="M448.513,381.851l.091.084a1.739,1.739,0,0,1-.1,2.479,2.486,2.486,0,0,1-3.018.307c-.679-.486-.66-1.513.217-2.4A2.154,2.154,0,0,1,448.513,381.851Z" transform="translate(-180.436 -154.689)" fill="#fff"/>
    <path id="Path_14668" data-name="Path 14668" d="M201.494,151.549a11.061,11.061,0,0,0-2.222,1.108l-.63.4-.312.2a26.079,26.079,0,0,0-10.193,12.061l-.121.279-.09-.027a4.613,4.613,0,0,0-1.725-.214,3.1,3.1,0,0,0-2.806,2.23,12.053,12.053,0,0,0,.458,7.163l.157.463c.816,2.345,1.719,3.937,3.221,4.4,2,.618,8.894-2.117,11.3-4.6,1.715-1.77,1.029-3.935-.6-5.184l-.15-.111-.158-.109-.18-.116.12-.214q.125-.221.262-.448a18.435,18.435,0,0,1,3.43-4.229,9.97,9.97,0,0,1,1.653-1.155c.97-.552,4.841-2.071,5.493-2.584,2.093-1.646,1.851-4.03.527-6.1a8.977,8.977,0,0,0-3.368-3.1A5.149,5.149,0,0,0,201.494,151.549Zm2.81,2.705c1.479.716,3.621,3.326,2.318,4.351-.883.7-4.521,1.434-7.263,3.836-3.237,2.836-5.567,7.4-5.567,8.524l.369.139q3.028,1.166,2.307,1.909c-2.141,2.208-7.959,3.986-8.389,3.853s-2.935-5.11-1.934-8.466q.2-.672,3.486,1.023c1.971-5.859,4.851-10.263,10.233-13.745l.684-.433C201.709,154.516,203.14,153.691,204.3,154.254Z" transform="translate(-74.214 -61.303)" fill="#00160a" fill-rule="evenodd"/>
    <path id="Path_14669" data-name="Path 14669" d="M215.21,221.072c-11.817-12.914-12.5-34.945.265-49.132,7.931-8.815,26.573-14.492,39.618-11.326,7.017,1.7,14.629,8.586,19.47,17.632,5.44,10.163,6.829,21.71,3.046,32.389a29.18,29.18,0,0,1-14.96,17.132,37.791,37.791,0,0,1-18.042,3.527C233.447,230.825,219.57,225.837,215.21,221.072Zm56.541-41.321c-4.447-8.307-11.375-14.574-17.41-16.038l-.359-.084c-11.9-2.7-29.064,2.585-36.136,10.444-11.642,12.938-11.016,33.116-.283,44.845,3.7,4.048,16.791,8.752,27.178,9.189a34.652,34.652,0,0,0,16.507-3.206A26,26,0,0,0,274.6,209.57C278.068,199.79,276.789,189.164,271.751,179.751Zm-6.145,30.561c7.059-12.392-2.51-39.148-15.875-41.381-12.563-2.1-17.325.948-22.743,5.646l-1.048.919c-10.6,9.375-10.6,29.515-.244,38.859,2.6,2.348,14.057,8.372,22.846,6.529C254.371,219.663,262.481,215.8,265.607,210.313Zm-29.5-37.886a15.381,15.381,0,0,1,2.114-.589,5.4,5.4,0,0,0-.257.739c-.4,1.457-.356,2.7.072,5.737l.292,2.01c.025.177.047.339.069.506l.064.511c.455,3.841.042,5.844-1.675,6.949-1.571,1.011-3.117,1.392-6.647,1.8l-1.322.15a30.349,30.349,0,0,0-3.513.55l-.466.093a14.441,14.441,0,0,0-3.527,1.141c.606-5.486,2.852-10.7,6.739-14.141C231.72,174.646,233.57,173.338,236.11,172.427Zm13.1-.35q-.774-.129-1.508-.232a6.43,6.43,0,0,1,.261.826,16.58,16.58,0,0,1,.278,4.758l-.035,1.061c-.037,1.022-.055,1.63-.06,2.214v.7c.03,3.113.518,5.183,1.715,6.584l.133.149.053.023q.111.045.28.1l.118.038c.274.087.618.185,1.058.3l.737.188,3.144.77c.617.153,1.166.293,1.693.432l.865.233a30.2,30.2,0,0,1,6.04,2.191C261.813,182.727,255.855,173.189,249.207,172.078Zm15.119,27.465q.269-.171.51-.348a18.6,18.6,0,0,1-2,9.54c-2.113,3.71-7.983,7.243-13.715,8.738a7.434,7.434,0,0,0,.353-1.188,19.007,19.007,0,0,0,.213-4.929l-.069-1.141-.1-1.5c-.2-3-.149-4.256.112-4.556,1.177-1.353,2.807-1.87,6.956-2.466l.962-.137C261.012,201.045,262.639,200.618,264.326,199.543Zm-24.38,16.376a3.991,3.991,0,0,0,.512,1.606A33.5,33.5,0,0,1,235.9,216.2a30.43,30.43,0,0,1-8.063-4.209c-3.784-3.413-5.961-8.564-6.533-13.988a21.431,21.431,0,0,0,3.885,1.215l.248.058c.649.151,1.314.291,2.1.446l2.24.435c5.015,1.03,7.6,2.225,8.787,3.82l.118.166c.784,1.143,1,2.436,1.064,5.795l.036,2.392C239.8,213.759,239.848,214.71,239.946,215.919Zm3.772-43.945.144.013c1.354.161,1.64,1.417,1.48,6.153l-.054,1.642c-.013.5-.018.894-.018,1.331a15.408,15.408,0,0,0,1.312,7.124,1.27,1.27,0,0,0-.6-.148l-.217,0-.054,0-.024-.01a1.276,1.276,0,0,0-1.09.1l-.033.02-.112.018a10.912,10.912,0,0,0-7.03,4.327,5.643,5.643,0,0,0,.3,7.147,27.447,27.447,0,0,0-7.04-2.281l-.976-.2-1.29-.249-.577-.114c-.557-.111-1.051-.215-1.524-.323l-.235-.054a19.263,19.263,0,0,1-3.372-1.035l-.127-.059a3.8,3.8,0,0,1-.577-.328l-.018-.014.035-.036a2.265,2.265,0,0,1,.451-.326A11.734,11.734,0,0,1,225.9,193.6l.4-.086c.7-.144,1.388-.247,2.46-.375l1.74-.2c3.958-.461,5.791-.916,7.848-2.239,3-1.929,3.57-4.946,2.938-9.979l-.07-.531c-.036-.26-.074-.532-.125-.878l-.2-1.36c-.355-2.528-.406-3.613-.173-4.542l.022-.084C241.022,172.285,241.747,171.851,243.718,171.974Zm-2.965,30.142c.037.049.075.1.111.147,1.356,1.829,1.667,3.444,1.746,7.569l.032,2.18c.024,1.363.059,2.262.137,3.3l.029.374a2.417,2.417,0,0,0,2.708,1.644c1.083-.207,1.5-1.981,1.3-5.93l-.028-.494-.159-2.317c-.25-3.794-.171-5.055.7-6.154A8.167,8.167,0,0,1,240.753,202.117Zm9.918-2.076a25.676,25.676,0,0,1,5.2-1.15l1.234-.177c2.882-.422,4.276-.766,5.457-1.459l.219-.134c1.336-.851,1.464-1.021.87-1.5l-.192-.149a20.125,20.125,0,0,0-6-2.4l-.617-.17c-.666-.18-1.351-.356-2.158-.556l-3.357-.823c-.634-.16-1.142-.293-1.554-.415,2.595,2.744,3.024,5.832,1.241,8.47l-.1.145C250.835,199.831,250.754,199.937,250.671,200.041Zm-5.706-9.321.181-.026.128.077c4.173,2.537,5.1,5.3,3.559,7.47a5.594,5.594,0,0,1-7.325,1.37c-2.8-1.777-3.27-3.709-1.969-5.642A8.4,8.4,0,0,1,244.965,190.72Z" transform="translate(-83.575 -64.764)" fill="#00160a" fill-rule="evenodd"/>
    <path id="Path_14670" data-name="Path 14670" d="M342.051,199.082a1.533,1.533,0,0,1,.232-.556,6.471,6.471,0,0,1,2.662-.793,36.553,36.553,0,0,1,4.862-.269c1.827,0,3.77.06,5.683.126l.336.012c1.785.062,3.542.123,5.1.125,1.832,0,3.693.008,5.568.015,4.583.015,9.247.032,13.758-.015.2,0,.481-.008.836-.015,1.439-.03,4.039-.085,6.691,0a43.334,43.334,0,0,1,4.6.351,12.643,12.643,0,0,1,1.659.336,2.587,2.587,0,0,1,.729.3,2.132,2.132,0,0,1,.537.873,9.43,9.43,0,0,1,.523,2.115,23.945,23.945,0,0,1,.007,5.98,19.013,19.013,0,0,1-1.4,5.526c-.716,1.548-1.374,1.927-1.687,1.961-7.937.863-21.349.568-32.028.335l-3.477-.075c-1.34-.027-2.741.062-4.086.167l-.964.077c-1.017.082-1.99.161-2.93.2a15.918,15.918,0,0,1-3.2-.119,4.165,4.165,0,0,1-1.734-.625c-.043-.1-.1-.233-.17-.42-.17-.46-.373-1.111-.59-1.908a58.223,58.223,0,0,1-1.238-5.8,34.23,34.23,0,0,1-.515-5.925A8.614,8.614,0,0,1,342.051,199.082ZM344.4,215.24a.182.182,0,0,1-.014-.024A.18.18,0,0,1,344.4,215.24Z" transform="translate(-138.593 -80.065)" fill="none" stroke="#421eb7" stroke-width="5.365"/>
    <path id="Path_14671" data-name="Path 14671" d="M359.777,195.564c1.84,0,3.706.008,5.584.015,3.861.013,7.771.026,11.6,0l2.125-.017c.182,0,.452-.008.794-.015,3.2-.067,12.625-.266,14.7,1.307,3.392,2.575,2.042,18.786-2.809,19.312-8.049.875-21.577.577-32.226.344h0c-1.2-.027-2.367-.052-3.483-.075-1.551-.032-3.219.1-4.867.237h0c-3.7.3-7.285.59-9.194-1.032-.985-.837-4.779-16.769-1.824-18.957,2.258-1.672,8.733-1.447,14.55-1.245h0c1.444.05,2.848.1,4.137.117l0,0v0Q359.333,195.563,359.777,195.564Zm-3.89,3.106.865.028a40.209,40.209,0,0,1,.085,7.062l-.114,2.471c-.1,2.31-.137,3.882-.071,5.029l-.75-.015c-1.046-.014-2.107.033-3.562.14l-2.16.169c-3.181.234-4.831.2-5.661-.1l-.059-.023-.049-.141c-.136-.4-.29-.91-.45-1.5l-.1-.388c-.413-1.576-.809-3.446-1.1-5.246a32.513,32.513,0,0,1-.5-5.633l.006-.187a7.912,7.912,0,0,1,.123-1.2l.011-.051.108-.036a13.745,13.745,0,0,1,2.814-.452,61.366,61.366,0,0,1,6.213-.074l2.253.069Zm10.168,14.787-6.167-.129c-.033-.361-.057-.806-.065-1.32l0-.111c-.01-.808.006-1.58.062-2.935l.18-3.987a41.576,41.576,0,0,0-.069-6.221l13.2.03,2.043,0a118.373,118.373,0,0,0,.532,14.787q-1.669,0-3.468-.02l-2.281-.026C368.759,213.5,367.475,213.484,366.055,213.457Zm12.95.1c4.9-.041,8.837-.2,11.888-.5l.285-.03.039-.04a4.109,4.109,0,0,0,.547-.878l.073-.153a17.5,17.5,0,0,0,1.26-5.043,22.362,22.362,0,0,0,0-5.564,7.958,7.958,0,0,0-.425-1.749l-.047-.113-.036-.074-.127-.04a10.658,10.658,0,0,0-1.384-.284,39.929,39.929,0,0,0-4.289-.341c-1.583-.055-3.193-.064-5-.04l-2.675.049-.76.006c-.025.431-.043.944-.051,1.519l0,.187c-.013,1.555.043,3.514.153,5.683l.023.436c.092,1.7.213,3.46.342,5.005l.078.9C378.937,212.875,378.972,213.232,379.005,213.556Zm-14.047-9.414.291.417c.332.468.646.882.945,1.248a8.309,8.309,0,0,0-.678,3.119.833.833,0,1,0,1.664.087,7.929,7.929,0,0,1,.286-1.861,3.878,3.878,0,0,0,2.578,1.122h.164a.833.833,0,0,0,.085-1.662l-.085,0h-.14a2.643,2.643,0,0,1-1.838-.995,9.089,9.089,0,0,1,.887-1.037l.894-.884a.833.833,0,1,0-1.173-1.183l-.749.737a12.835,12.835,0,0,0-.961,1.064l-.3-.411q-.235-.325-.492-.7a.833.833,0,0,0-1.374.944Zm22.75-.794.008-.508a.833.833,0,1,0-1.666-.014c0,.506-.017.96-.039,1.365a12.7,12.7,0,0,0-1.392-.344l-1.032-.193a.833.833,0,0,0-.311,1.637l1.236.234a8.977,8.977,0,0,1,1.315.364,2.64,2.64,0,0,1-.968,1.852l-.116.078-.068.051a.833.833,0,0,0,1,1.33l.136-.092a3.878,3.878,0,0,0,1.51-2.372,7.962,7.962,0,0,1,1.278,1.383.833.833,0,1,0,1.331-1,8.312,8.312,0,0,0-2.306-2.208C387.666,204.44,387.695,203.921,387.708,203.347Z" transform="translate(-137.481 -79.188)" fill="#00160a" fill-rule="evenodd"/>
    <path id="Path_14672" data-name="Path 14672" d="M356.067,208.006l-.131.492c-.152.553-.3,1.049-.461,1.5a8.314,8.314,0,0,1,1.7,2.7.833.833,0,1,1-1.534.651,7.923,7.923,0,0,0-.9-1.651,3.879,3.879,0,0,1-2.039,1.936l-.154.056a.833.833,0,0,1-.648-1.533l.078-.033.131-.048a2.641,2.641,0,0,0,1.387-1.564,9.083,9.083,0,0,0-1.187-.671l-1.142-.526a.833.833,0,0,1,.7-1.513l.955.436a12.74,12.74,0,0,1,1.266.671c.119-.389.241-.825.368-1.315a.833.833,0,1,1,1.614.416Z" transform="translate(-142.189 -83.917)" fill="#0058ff" fill-rule="evenodd"/>
  </g>
</svg>
