<svg xmlns="http://www.w3.org/2000/svg" width="29.379" height="29.976" viewBox="0 0 29.379 29.976">
  <g id="Group_160521" data-name="Group 160521" transform="translate(0 0)">
    <path id="Path_14644" data-name="Path 14644" d="M453.689,979.263a12.961,12.961,0,0,0-.314-3.063H439.3v5.562h8.264a7.316,7.316,0,0,1-3.063,4.864l-.03.184,4.449,3.448.308.03a14.662,14.662,0,0,0,4.461-11.024" transform="translate(-424.312 -963.942)" fill="#4285f4"/>
    <path id="Path_14645" data-name="Path 14645" d="M226.688,1084.232a14.3,14.3,0,0,0,9.928-3.631l-4.727-3.667a8.859,8.859,0,0,1-5.2,1.5,9.037,9.037,0,0,1-8.53-6.232l-.178.018-4.627,3.578-.059.166a14.943,14.943,0,0,0,13.388,8.27" transform="translate(-211.701 -1054.256)" fill="#34a853"/>
    <path id="Path_14646" data-name="Path 14646" d="M192.757,917.169a9.177,9.177,0,0,1-.5-2.968,9.731,9.731,0,0,1,.486-2.968l-.006-.2-4.686-3.637-.154.071a14.957,14.957,0,0,0,0,13.459l4.858-3.762" transform="translate(-186.3 -899.218)" fill="#fbbc05"/>
    <path id="Path_14647" data-name="Path 14647" d="M226.5,775.079a8.271,8.271,0,0,1,5.794,2.233l4.23-4.129a14.414,14.414,0,0,0-10.029-3.9A14.975,14.975,0,0,0,213.1,777.55l4.846,3.762a9.072,9.072,0,0,1,8.554-6.232" transform="translate(-211.512 -769.285)" fill="#eb4335"/>
  </g>
</svg>
