<svg id="Artboard_1" data-name="Artboard 1" xmlns="http://www.w3.org/2000/svg" width="208.915" height="23.46" viewBox="0 0 208.915 23.46">
  <path id="Fill-1" d="M7.446,30.326H5.16a3.389,3.389,0,0,1-1.089-.174,2.232,2.232,0,0,1-.893-.566,2.743,2.743,0,0,1-.6-.991,4.253,4.253,0,0,1-.218-1.451V23.4a1.11,1.11,0,0,0-.3-.791,1.9,1.9,0,0,0-.686-.472,3.1,3.1,0,0,0-.784-.2A5.835,5.835,0,0,0,0,21.886V19.418a5.835,5.835,0,0,0,.588-.044,3.1,3.1,0,0,0,.784-.2,1.9,1.9,0,0,0,.686-.457,1.11,1.11,0,0,0,.294-.806V14.149A4.46,4.46,0,0,1,2.558,12.7a2.54,2.54,0,0,1,.588-.972,2.29,2.29,0,0,1,.893-.555A3.462,3.462,0,0,1,5.16,11H7.446v2.482H6.379a1.909,1.909,0,0,0-.784.131,1.012,1.012,0,0,0-.425.337A1.034,1.034,0,0,0,5,14.407a3.629,3.629,0,0,0-.033.468V18.38a2.714,2.714,0,0,1-.218,1.2,1.782,1.782,0,0,1-.533.664,1.764,1.764,0,0,1-.7.3,5.461,5.461,0,0,1-.726.1v.044a6.855,6.855,0,0,1,.726.087,1.647,1.647,0,0,1,.7.294,1.782,1.782,0,0,1,.533.664,2.714,2.714,0,0,1,.218,1.2v3.527A3.629,3.629,0,0,0,5,26.926a1.034,1.034,0,0,0,.174.457,1.012,1.012,0,0,0,.425.337,1.909,1.909,0,0,0,.784.131H7.446Z" transform="translate(0 -7.008)" fill="#028d9a" fill-rule="evenodd"/>
  <path id="Fill-3" d="M93.24,11h2.351a3.157,3.157,0,0,1,1.045.174,2.246,2.246,0,0,1,.871.552,2.743,2.743,0,0,1,.6.991,4.253,4.253,0,0,1,.218,1.451v3.748a1.136,1.136,0,0,0,.283.806,1.814,1.814,0,0,0,.664.457,2.95,2.95,0,0,0,.773.2,5.991,5.991,0,0,0,.631.044v2.468a5.991,5.991,0,0,0-.631.044,2.95,2.95,0,0,0-.773.2,1.814,1.814,0,0,0-.653.486,1.136,1.136,0,0,0-.283.806v3.752a4.253,4.253,0,0,1-.218,1.451,2.714,2.714,0,0,1-.588.98,2.2,2.2,0,0,1-.882.555,3.462,3.462,0,0,1-1.121.174H93.24V27.844h1.067a1.909,1.909,0,0,0,.784-.131,1.012,1.012,0,0,0,.425-.337,1.034,1.034,0,0,0,.174-.457,3.629,3.629,0,0,0,.033-.468V22.946a2.714,2.714,0,0,1,.218-1.2,1.782,1.782,0,0,1,.533-.664,1.647,1.647,0,0,1,.7-.294q.381-.065.726-.109v-.044a6.855,6.855,0,0,1-.726-.087,1.647,1.647,0,0,1-.7-.294,1.782,1.782,0,0,1-.533-.664,2.714,2.714,0,0,1-.218-1.2V14.868a3.631,3.631,0,0,0-.033-.468,1.034,1.034,0,0,0-.174-.457,1.012,1.012,0,0,0-.425-.337,1.909,1.909,0,0,0-.784-.131H93.24Z" transform="translate(-59.406 -7.008)" fill="#028d9a" fill-rule="evenodd"/>
  <path id="Fill-5" d="M132.3,18.055V14.909h3.052V10.62h3.7v4.289h4.071v3.146h-4.071v6.492a3.2,3.2,0,0,0,.417,1.756,1.817,1.817,0,0,0,1.651.65,5.926,5.926,0,0,0,1.089-.109,2.224,2.224,0,0,0,.925-.363v3.11a4.779,4.779,0,0,1-1.444.4,11.913,11.913,0,0,1-1.5.109,7.62,7.62,0,0,1-2.42-.323,3.19,3.19,0,0,1-1.484-.987,3.774,3.774,0,0,1-.726-1.651,11.79,11.79,0,0,1-.2-2.282v-6.8Z" transform="translate(-84.292 -6.766)" fill="#1c1b1a" fill-rule="evenodd"/>
  <path id="Fill-7" d="M179.361,27.743a3.5,3.5,0,0,0-1.016-2.576,3.809,3.809,0,0,0-2.747-.94,3.629,3.629,0,0,0-2.638.954,4.289,4.289,0,0,0-1.187,2.562Zm-7.588,2.776a3.759,3.759,0,0,0,1.3,2.591,4.053,4.053,0,0,0,2.685.925,4.4,4.4,0,0,0,2.326-.57,6.43,6.43,0,0,0,1.651-1.451l2.653,2.007a7.508,7.508,0,0,1-2.9,2.282,8.582,8.582,0,0,1-3.36.679,8.887,8.887,0,0,1-3.146-.555,7.548,7.548,0,0,1-2.562-1.575A7.446,7.446,0,0,1,168.7,32.4a8.391,8.391,0,0,1,0-6.387,7.345,7.345,0,0,1,4.278-3.992,8.887,8.887,0,0,1,3.146-.555,7.192,7.192,0,0,1,2.8.523,6.049,6.049,0,0,1,2.177,1.557,7.232,7.232,0,0,1,1.451,2.515,10.709,10.709,0,0,1,.508,3.44v1.016Z" transform="translate(-107.081 -13.678)" fill="#1c1b1a" fill-rule="evenodd"/>
  <path id="Fill-9" d="M227.777,26.263a6.042,6.042,0,0,0-1.357-1.089,2.936,2.936,0,0,0-1.451-.4,4.224,4.224,0,0,0-3.193,1.357,4.18,4.18,0,0,0-.864,1.419,4.866,4.866,0,0,0,0,3.331,4.18,4.18,0,0,0,.864,1.419,4.224,4.224,0,0,0,3.193,1.357,3.665,3.665,0,0,0,1.6-.363,3.5,3.5,0,0,0,1.285-1.016l2.468,2.649a5.65,5.65,0,0,1-1.281.958,8.824,8.824,0,0,1-1.451.65,9.147,9.147,0,0,1-1.415.363,7.587,7.587,0,0,1-1.172.109,8.886,8.886,0,0,1-3.146-.555,7.548,7.548,0,0,1-2.562-1.575,7.446,7.446,0,0,1-1.713-2.449,8.39,8.39,0,0,1,0-6.387,7.374,7.374,0,0,1,4.246-4.017,8.887,8.887,0,0,1,3.146-.555,8.081,8.081,0,0,1,2.852.541,6.532,6.532,0,0,1,2.515,1.709Z" transform="translate(-138.224 -13.679)" fill="#1c1b1a" fill-rule="evenodd"/>
  <path id="Fill-11" d="M263.581,10.581h.062A4.3,4.3,0,0,1,265.171,8.9a4.852,4.852,0,0,1,2.819-.755,5.839,5.839,0,0,1,2.515.494,4.739,4.739,0,0,1,1.68,1.3,4.971,4.971,0,0,1,.929,1.851,8.709,8.709,0,0,1,.276,2.177v9.358h-3.7V15.825c0-.414-.022-.871-.062-1.375a4.937,4.937,0,0,0-.323-1.419,2.7,2.7,0,0,0-.82-1.11,2.344,2.344,0,0,0-1.51-.446,3.513,3.513,0,0,0-1.557.308,2.943,2.943,0,0,0-1.049.835,3.266,3.266,0,0,0-.6,1.2,5.374,5.374,0,0,0-.185,1.419v8.081h-3.7V0h3.7Z" transform="translate(-165.577)" fill="#1c1b1a" fill-rule="evenodd"/>
  <path id="Fill-13" d="M310.317,29.225a4.873,4.873,0,0,0,.29,1.666,4.187,4.187,0,0,0,.86,1.419,4.5,4.5,0,0,0,5.011.987,4.354,4.354,0,0,0,1.372-.987,4.181,4.181,0,0,0,.875-1.419,4.866,4.866,0,0,0,0-3.331,4.18,4.18,0,0,0-.864-1.419,4.336,4.336,0,0,0-7.261,1.419,4.891,4.891,0,0,0-.29,1.666m-3.7,0a7.849,7.849,0,0,1,.631-3.193,7.381,7.381,0,0,1,4.278-4.006,9.192,9.192,0,0,1,6.292,0,7.374,7.374,0,0,1,4.275,3.992,8.39,8.39,0,0,1,0,6.387,7.374,7.374,0,0,1-4.275,4.024,9.192,9.192,0,0,1-6.292,0,7.53,7.53,0,0,1-2.558-1.575,7.446,7.446,0,0,1-1.713-2.449,7.849,7.849,0,0,1-.631-3.193" transform="translate(-195.349 -13.679)" fill="#1c1b1a" fill-rule="evenodd"/>
  <path id="Fill-15" d="M360.69,23.318h3.7V0h-3.7Z" transform="translate(-229.806)" fill="#1c1b1a" fill-rule="evenodd"/>
  <path id="Fill-17" d="M396.13,37.245h-3.516V34.868h-.058a5.167,5.167,0,0,1-1.608,1.927,4.75,4.75,0,0,1-2.932.816,5.955,5.955,0,0,1-2.515-.479,4.452,4.452,0,0,1-1.676-1.3,4.982,4.982,0,0,1-.929-1.865,8.53,8.53,0,0,1-.276-2.177V22.44h3.7v7.5c0,.41.018.867.062,1.372a4.905,4.905,0,0,0,.323,1.419,2.7,2.7,0,0,0,.8,1.11,2.33,2.33,0,0,0,1.528.446,3.513,3.513,0,0,0,1.557-.308,2.972,2.972,0,0,0,1.049-.835,3.316,3.316,0,0,0,.6-1.2,5.372,5.372,0,0,0,.185-1.419V22.44h3.7Z" transform="translate(-243.778 -14.297)" fill="#1c1b1a" fill-rule="evenodd"/>
  <path id="Fill-18" d="M426.65,18.055V14.909H429.7V10.62h3.7v4.289h4.071v3.146H433.4v6.492a3.233,3.233,0,0,0,.417,1.756,1.817,1.817,0,0,0,1.651.65,5.955,5.955,0,0,0,1.089-.109,2.225,2.225,0,0,0,.925-.363v3.11a4.75,4.75,0,0,1-1.451.385,11.912,11.912,0,0,1-1.5.109,7.62,7.62,0,0,1-2.42-.323,3.208,3.208,0,0,1-1.484-.987,3.774,3.774,0,0,1-.726-1.651,11.788,11.788,0,0,1-.2-2.282V18.055Z" transform="translate(-271.831 -6.766)" fill="#1c1b1a" fill-rule="evenodd"/>
  <path id="Fill-19" d="M463.806,25.539h3.7V10.734h-3.7ZM463.28,5.7a2.13,2.13,0,0,1,.664-1.557,2.271,2.271,0,0,1,1.68-.66,2.449,2.449,0,0,1,1.713.631A2.061,2.061,0,0,1,468.03,5.7a2.061,2.061,0,0,1-.693,1.6,2.449,2.449,0,0,1-1.713.631,2.272,2.272,0,0,1-1.68-.66,2.134,2.134,0,0,1-.664-1.56Z" transform="translate(-295.169 -2.221)" fill="#1c1b1a" fill-rule="evenodd"/>
  <path id="Fill-20" d="M488.32,29.225a4.875,4.875,0,0,0,.29,1.666,4.239,4.239,0,0,0,.864,1.419,4.376,4.376,0,0,0,6.387,0,4.181,4.181,0,0,0,.871-1.419,4.866,4.866,0,0,0,0-3.331,4.18,4.18,0,0,0-.864-1.419,4.376,4.376,0,0,0-6.387,0,4.238,4.238,0,0,0-.864,1.419,4.89,4.89,0,0,0-.29,1.666m-3.7,0a7.85,7.85,0,0,1,.631-3.193,7.428,7.428,0,0,1,1.713-2.449,7.529,7.529,0,0,1,2.551-1.557,9.191,9.191,0,0,1,6.292,0,7.581,7.581,0,0,1,2.562,1.575,7.475,7.475,0,0,1,1.709,2.417,8.346,8.346,0,0,1,0,6.387,7.436,7.436,0,0,1-1.709,2.449,7.581,7.581,0,0,1-2.562,1.575,9.191,9.191,0,0,1-6.292,0,7.529,7.529,0,0,1-2.558-1.575A7.392,7.392,0,0,1,485.25,32.4a7.85,7.85,0,0,1-.631-3.193" transform="translate(-308.764 -13.679)" fill="#1c1b1a" fill-rule="evenodd"/>
  <path id="Fill-21" d="M538.5,22.8h3.516v2.373h.062a5.215,5.215,0,0,1,1.6-1.927,4.75,4.75,0,0,1,2.932-.816,5.839,5.839,0,0,1,2.515.493,4.805,4.805,0,0,1,1.68,1.3,4.914,4.914,0,0,1,.925,1.851,8.533,8.533,0,0,1,.276,2.177V37.6h-3.7V30.11a10.965,10.965,0,0,0-.062-1.375,4.936,4.936,0,0,0-.323-1.419,2.674,2.674,0,0,0-.816-1.11,2.348,2.348,0,0,0-1.513-.446,3.513,3.513,0,0,0-1.557.308,2.971,2.971,0,0,0-1.049.835,3.316,3.316,0,0,0-.6,1.2,5.376,5.376,0,0,0-.185,1.422V37.6h-3.7Z" transform="translate(-343.094 -14.285)" fill="#1c1b1a" fill-rule="evenodd"/>
  <path id="Fill-22" d="M30.16,28.811,35.5,19.558h6.84l1.894-3.28-2.442-1.426,7.417-4.442-.323,8.538-2.431-1.39-2.613,4.525H37l-4.623,8.009Z" transform="translate(-19.216 -6.633)" fill="#95c13d" fill-rule="evenodd"/>
</svg>
